<?xml version="1.0" encoding="utf-8" standalone="no"?>
<!DOCTYPE svg PUBLIC "-//W3C//DTD SVG 1.1//EN"
  "http://www.w3.org/Graphics/SVG/1.1/DTD/svg11.dtd">
<!-- Created with matplotlib (http://matplotlib.org/) -->
<svg height="396pt" version="1.1" viewBox="0 0 576 396" width="576pt" xmlns="http://www.w3.org/2000/svg" xmlns:xlink="http://www.w3.org/1999/xlink">
 <defs>
  <style type="text/css">
*{stroke-linecap:butt;stroke-linejoin:round;stroke-miterlimit:100000;}
  </style>
 </defs>
 <g id="figure_1">
  <g id="patch_1">
   <path d="M 0 396 
L 576 396 
L 576 0 
L 0 0 
z
" style="fill:#ffffff;"/>
  </g>
  <g id="axes_1">
   <g id="patch_2">
    <path d="M 72 356.4 
L 518.4 356.4 
L 518.4 39.6 
L 72 39.6 
z
" style="fill:#eaeaf2;"/>
   </g>
   <g id="matplotlib.axis_1">
    <g id="xtick_1">
     <g id="line2d_1">
      <path clip-path="url(#pa6a220bb4e)" d="M 72 356.4 
L 72 39.6 
" style="fill:none;stroke:#ffffff;stroke-linecap:round;"/>
     </g>
     <g id="line2d_2">
      <defs>
       <path d="M 0 0 
L 0 0 
" id="m72aade5592" style="stroke:#262626;"/>
      </defs>
      <g>
       <use style="fill:#262626;stroke:#262626;" x="72.0" xlink:href="#m72aade5592" y="356.4"/>
      </g>
     </g>
     <g id="line2d_3">
      <g>
       <use style="fill:#262626;stroke:#262626;" x="72.0" xlink:href="#m72aade5592" y="39.6"/>
      </g>
     </g>
     <g id="text_1">
      <!-- −20 -->
      <defs>
       <path d="M 50.34375 8.453125 
L 50.34375 0 
L 3.03125 0 
Q 2.9375 3.171875 4.046875 6.109375 
Q 5.859375 10.9375 9.828125 15.625 
Q 13.8125 20.3125 21.34375 26.46875 
Q 33.015625 36.03125 37.109375 41.625 
Q 41.21875 47.21875 41.21875 52.203125 
Q 41.21875 57.421875 37.46875 61 
Q 33.734375 64.59375 27.734375 64.59375 
Q 21.390625 64.59375 17.578125 60.78125 
Q 13.765625 56.984375 13.71875 50.25 
L 4.6875 51.171875 
Q 5.609375 61.28125 11.65625 66.578125 
Q 17.71875 71.875 27.9375 71.875 
Q 38.234375 71.875 44.234375 66.15625 
Q 50.25 60.453125 50.25 52 
Q 50.25 47.703125 48.484375 43.546875 
Q 46.734375 39.40625 42.65625 34.8125 
Q 38.578125 30.21875 29.109375 22.21875 
Q 21.1875 15.578125 18.9375 13.203125 
Q 16.703125 10.84375 15.234375 8.453125 
z
" id="ArialMT-32"/>
       <path d="M 52.828125 31.203125 
L 5.5625 31.203125 
L 5.5625 39.40625 
L 52.828125 39.40625 
z
" id="ArialMT-2212"/>
       <path d="M 4.15625 35.296875 
Q 4.15625 48 6.765625 55.734375 
Q 9.375 63.484375 14.515625 67.671875 
Q 19.671875 71.875 27.484375 71.875 
Q 33.25 71.875 37.59375 69.546875 
Q 41.9375 67.234375 44.765625 62.859375 
Q 47.609375 58.5 49.21875 52.21875 
Q 50.828125 45.953125 50.828125 35.296875 
Q 50.828125 22.703125 48.234375 14.96875 
Q 45.65625 7.234375 40.5 3 
Q 35.359375 -1.21875 27.484375 -1.21875 
Q 17.140625 -1.21875 11.234375 6.203125 
Q 4.15625 15.140625 4.15625 35.296875 
M 13.1875 35.296875 
Q 13.1875 17.671875 17.3125 11.828125 
Q 21.4375 6 27.484375 6 
Q 33.546875 6 37.671875 11.859375 
Q 41.796875 17.71875 41.796875 35.296875 
Q 41.796875 52.984375 37.671875 58.78125 
Q 33.546875 64.59375 27.390625 64.59375 
Q 21.34375 64.59375 17.71875 59.46875 
Q 13.1875 52.9375 13.1875 35.296875 
" id="ArialMT-30"/>
      </defs>
      <g style="fill:#262626;" transform="translate(63.51875 370.5578125)scale(0.1 -0.1)">
       <use xlink:href="#ArialMT-2212"/>
       <use x="58.3984375" xlink:href="#ArialMT-32"/>
       <use x="114.013671875" xlink:href="#ArialMT-30"/>
      </g>
     </g>
    </g>
    <g id="xtick_2">
     <g id="line2d_4">
      <path clip-path="url(#pa6a220bb4e)" d="M 135.771429 356.4 
L 135.771429 39.6 
" style="fill:none;stroke:#ffffff;stroke-linecap:round;"/>
     </g>
     <g id="line2d_5">
      <g>
       <use style="fill:#262626;stroke:#262626;" x="135.771428571" xlink:href="#m72aade5592" y="356.4"/>
      </g>
     </g>
     <g id="line2d_6">
      <g>
       <use style="fill:#262626;stroke:#262626;" x="135.771428571" xlink:href="#m72aade5592" y="39.6"/>
      </g>
     </g>
     <g id="text_2">
      <!-- 0 -->
      <g style="fill:#262626;" transform="translate(132.990959821 370.5578125)scale(0.1 -0.1)">
       <use xlink:href="#ArialMT-30"/>
      </g>
     </g>
    </g>
    <g id="xtick_3">
     <g id="line2d_7">
      <path clip-path="url(#pa6a220bb4e)" d="M 199.542857 356.4 
L 199.542857 39.6 
" style="fill:none;stroke:#ffffff;stroke-linecap:round;"/>
     </g>
     <g id="line2d_8">
      <g>
       <use style="fill:#262626;stroke:#262626;" x="199.542857143" xlink:href="#m72aade5592" y="356.4"/>
      </g>
     </g>
     <g id="line2d_9">
      <g>
       <use style="fill:#262626;stroke:#262626;" x="199.542857143" xlink:href="#m72aade5592" y="39.6"/>
      </g>
     </g>
     <g id="text_3">
      <!-- 20 -->
      <g style="fill:#262626;" transform="translate(193.981919643 370.5578125)scale(0.1 -0.1)">
       <use xlink:href="#ArialMT-32"/>
       <use x="55.615234375" xlink:href="#ArialMT-30"/>
      </g>
     </g>
    </g>
    <g id="xtick_4">
     <g id="line2d_10">
      <path clip-path="url(#pa6a220bb4e)" d="M 263.314286 356.4 
L 263.314286 39.6 
" style="fill:none;stroke:#ffffff;stroke-linecap:round;"/>
     </g>
     <g id="line2d_11">
      <g>
       <use style="fill:#262626;stroke:#262626;" x="263.314285714" xlink:href="#m72aade5592" y="356.4"/>
      </g>
     </g>
     <g id="line2d_12">
      <g>
       <use style="fill:#262626;stroke:#262626;" x="263.314285714" xlink:href="#m72aade5592" y="39.6"/>
      </g>
     </g>
     <g id="text_4">
      <!-- 40 -->
      <defs>
       <path d="M 32.328125 0 
L 32.328125 17.140625 
L 1.265625 17.140625 
L 1.265625 25.203125 
L 33.9375 71.578125 
L 41.109375 71.578125 
L 41.109375 25.203125 
L 50.78125 25.203125 
L 50.78125 17.140625 
L 41.109375 17.140625 
L 41.109375 0 
z
M 32.328125 25.203125 
L 32.328125 57.46875 
L 9.90625 25.203125 
z
" id="ArialMT-34"/>
      </defs>
      <g style="fill:#262626;" transform="translate(257.753348214 370.5578125)scale(0.1 -0.1)">
       <use xlink:href="#ArialMT-34"/>
       <use x="55.615234375" xlink:href="#ArialMT-30"/>
      </g>
     </g>
    </g>
    <g id="xtick_5">
     <g id="line2d_13">
      <path clip-path="url(#pa6a220bb4e)" d="M 327.085714 356.4 
L 327.085714 39.6 
" style="fill:none;stroke:#ffffff;stroke-linecap:round;"/>
     </g>
     <g id="line2d_14">
      <g>
       <use style="fill:#262626;stroke:#262626;" x="327.085714286" xlink:href="#m72aade5592" y="356.4"/>
      </g>
     </g>
     <g id="line2d_15">
      <g>
       <use style="fill:#262626;stroke:#262626;" x="327.085714286" xlink:href="#m72aade5592" y="39.6"/>
      </g>
     </g>
     <g id="text_5">
      <!-- 60 -->
      <defs>
       <path d="M 49.75 54.046875 
L 41.015625 53.375 
Q 39.84375 58.546875 37.703125 60.890625 
Q 34.125 64.65625 28.90625 64.65625 
Q 24.703125 64.65625 21.53125 62.3125 
Q 17.390625 59.28125 14.984375 53.46875 
Q 12.59375 47.65625 12.5 36.921875 
Q 15.671875 41.75 20.265625 44.09375 
Q 24.859375 46.4375 29.890625 46.4375 
Q 38.671875 46.4375 44.84375 39.96875 
Q 51.03125 33.5 51.03125 23.25 
Q 51.03125 16.5 48.125 10.71875 
Q 45.21875 4.9375 40.140625 1.859375 
Q 35.0625 -1.21875 28.609375 -1.21875 
Q 17.625 -1.21875 10.6875 6.859375 
Q 3.765625 14.9375 3.765625 33.5 
Q 3.765625 54.25 11.421875 63.671875 
Q 18.109375 71.875 29.4375 71.875 
Q 37.890625 71.875 43.28125 67.140625 
Q 48.6875 62.40625 49.75 54.046875 
M 13.875 23.1875 
Q 13.875 18.65625 15.796875 14.5 
Q 17.71875 10.359375 21.1875 8.171875 
Q 24.65625 6 28.46875 6 
Q 34.03125 6 38.03125 10.484375 
Q 42.046875 14.984375 42.046875 22.703125 
Q 42.046875 30.125 38.078125 34.390625 
Q 34.125 38.671875 28.125 38.671875 
Q 22.171875 38.671875 18.015625 34.390625 
Q 13.875 30.125 13.875 23.1875 
" id="ArialMT-36"/>
      </defs>
      <g style="fill:#262626;" transform="translate(321.524776786 370.5578125)scale(0.1 -0.1)">
       <use xlink:href="#ArialMT-36"/>
       <use x="55.615234375" xlink:href="#ArialMT-30"/>
      </g>
     </g>
    </g>
    <g id="xtick_6">
     <g id="line2d_16">
      <path clip-path="url(#pa6a220bb4e)" d="M 390.857143 356.4 
L 390.857143 39.6 
" style="fill:none;stroke:#ffffff;stroke-linecap:round;"/>
     </g>
     <g id="line2d_17">
      <g>
       <use style="fill:#262626;stroke:#262626;" x="390.857142857" xlink:href="#m72aade5592" y="356.4"/>
      </g>
     </g>
     <g id="line2d_18">
      <g>
       <use style="fill:#262626;stroke:#262626;" x="390.857142857" xlink:href="#m72aade5592" y="39.6"/>
      </g>
     </g>
     <g id="text_6">
      <!-- 80 -->
      <defs>
       <path d="M 17.671875 38.8125 
Q 12.203125 40.828125 9.5625 44.53125 
Q 6.9375 48.25 6.9375 53.421875 
Q 6.9375 61.234375 12.546875 66.546875 
Q 18.171875 71.875 27.484375 71.875 
Q 36.859375 71.875 42.578125 66.421875 
Q 48.296875 60.984375 48.296875 53.171875 
Q 48.296875 48.1875 45.671875 44.5 
Q 43.0625 40.828125 37.75 38.8125 
Q 44.34375 36.671875 47.78125 31.875 
Q 51.21875 27.09375 51.21875 20.453125 
Q 51.21875 11.28125 44.71875 5.03125 
Q 38.234375 -1.21875 27.640625 -1.21875 
Q 17.046875 -1.21875 10.546875 5.046875 
Q 4.046875 11.328125 4.046875 20.703125 
Q 4.046875 27.6875 7.59375 32.390625 
Q 11.140625 37.109375 17.671875 38.8125 
M 15.921875 53.71875 
Q 15.921875 48.640625 19.1875 45.40625 
Q 22.46875 42.1875 27.6875 42.1875 
Q 32.765625 42.1875 36.015625 45.375 
Q 39.265625 48.578125 39.265625 53.21875 
Q 39.265625 58.0625 35.90625 61.359375 
Q 32.5625 64.65625 27.59375 64.65625 
Q 22.5625 64.65625 19.234375 61.421875 
Q 15.921875 58.203125 15.921875 53.71875 
M 13.09375 20.65625 
Q 13.09375 16.890625 14.875 13.375 
Q 16.65625 9.859375 20.171875 7.921875 
Q 23.6875 6 27.734375 6 
Q 34.03125 6 38.125 10.046875 
Q 42.234375 14.109375 42.234375 20.359375 
Q 42.234375 26.703125 38.015625 30.859375 
Q 33.796875 35.015625 27.4375 35.015625 
Q 21.234375 35.015625 17.15625 30.90625 
Q 13.09375 26.8125 13.09375 20.65625 
" id="ArialMT-38"/>
      </defs>
      <g style="fill:#262626;" transform="translate(385.296205357 370.5578125)scale(0.1 -0.1)">
       <use xlink:href="#ArialMT-38"/>
       <use x="55.615234375" xlink:href="#ArialMT-30"/>
      </g>
     </g>
    </g>
    <g id="xtick_7">
     <g id="line2d_19">
      <path clip-path="url(#pa6a220bb4e)" d="M 454.628571 356.4 
L 454.628571 39.6 
" style="fill:none;stroke:#ffffff;stroke-linecap:round;"/>
     </g>
     <g id="line2d_20">
      <g>
       <use style="fill:#262626;stroke:#262626;" x="454.628571429" xlink:href="#m72aade5592" y="356.4"/>
      </g>
     </g>
     <g id="line2d_21">
      <g>
       <use style="fill:#262626;stroke:#262626;" x="454.628571429" xlink:href="#m72aade5592" y="39.6"/>
      </g>
     </g>
     <g id="text_7">
      <!-- 100 -->
      <defs>
       <path d="M 37.25 0 
L 28.46875 0 
L 28.46875 56 
Q 25.296875 52.984375 20.140625 49.953125 
Q 14.984375 46.921875 10.890625 45.40625 
L 10.890625 53.90625 
Q 18.265625 57.375 23.78125 62.296875 
Q 29.296875 67.234375 31.59375 71.875 
L 37.25 71.875 
z
" id="ArialMT-31"/>
      </defs>
      <g style="fill:#262626;" transform="translate(446.287165179 370.5578125)scale(0.1 -0.1)">
       <use xlink:href="#ArialMT-31"/>
       <use x="55.615234375" xlink:href="#ArialMT-30"/>
       <use x="111.23046875" xlink:href="#ArialMT-30"/>
      </g>
     </g>
    </g>
    <g id="xtick_8">
     <g id="line2d_22">
      <path clip-path="url(#pa6a220bb4e)" d="M 518.4 356.4 
L 518.4 39.6 
" style="fill:none;stroke:#ffffff;stroke-linecap:round;"/>
     </g>
     <g id="line2d_23">
      <g>
       <use style="fill:#262626;stroke:#262626;" x="518.4" xlink:href="#m72aade5592" y="356.4"/>
      </g>
     </g>
     <g id="line2d_24">
      <g>
       <use style="fill:#262626;stroke:#262626;" x="518.4" xlink:href="#m72aade5592" y="39.6"/>
      </g>
     </g>
     <g id="text_8">
      <!-- 120 -->
      <g style="fill:#262626;" transform="translate(510.05859375 370.5578125)scale(0.1 -0.1)">
       <use xlink:href="#ArialMT-31"/>
       <use x="55.615234375" xlink:href="#ArialMT-32"/>
       <use x="111.23046875" xlink:href="#ArialMT-30"/>
      </g>
     </g>
    </g>
    <g id="text_9">
     <!-- x -->
     <defs>
      <path d="M 0.734375 0 
L 19.671875 26.953125 
L 2.15625 51.859375 
L 13.140625 51.859375 
L 21.09375 39.703125 
Q 23.34375 36.234375 24.703125 33.890625 
Q 26.859375 37.109375 28.65625 39.59375 
L 37.40625 51.859375 
L 47.90625 51.859375 
L 29.984375 27.4375 
L 49.265625 0 
L 38.484375 0 
L 27.828125 16.109375 
L 25 20.453125 
L 11.375 0 
z
" id="ArialMT-78"/>
     </defs>
     <g style="fill:#262626;" transform="translate(292.45 385.41890625)scale(0.11 -0.11)">
      <use xlink:href="#ArialMT-78"/>
     </g>
    </g>
   </g>
   <g id="matplotlib.axis_2">
    <g id="ytick_1">
     <g id="line2d_25">
      <path clip-path="url(#pa6a220bb4e)" d="M 72 356.4 
L 518.4 356.4 
" style="fill:none;stroke:#ffffff;stroke-linecap:round;"/>
     </g>
     <g id="line2d_26">
      <g>
       <use style="fill:#262626;stroke:#262626;" x="72.0" xlink:href="#m72aade5592" y="356.4"/>
      </g>
     </g>
     <g id="line2d_27">
      <g>
       <use style="fill:#262626;stroke:#262626;" x="518.4" xlink:href="#m72aade5592" y="356.4"/>
      </g>
     </g>
     <g id="text_10">
      <!-- 0 -->
      <g style="fill:#262626;" transform="translate(59.4390625 358.98515625)scale(0.1 -0.1)">
       <use xlink:href="#ArialMT-30"/>
      </g>
     </g>
    </g>
    <g id="ytick_2">
     <g id="line2d_28">
      <path clip-path="url(#pa6a220bb4e)" d="M 72 293.04 
L 518.4 293.04 
" style="fill:none;stroke:#ffffff;stroke-linecap:round;"/>
     </g>
     <g id="line2d_29">
      <g>
       <use style="fill:#262626;stroke:#262626;" x="72.0" xlink:href="#m72aade5592" y="293.04"/>
      </g>
     </g>
     <g id="line2d_30">
      <g>
       <use style="fill:#262626;stroke:#262626;" x="518.4" xlink:href="#m72aade5592" y="293.04"/>
      </g>
     </g>
     <g id="text_11">
      <!-- 50 -->
      <defs>
       <path d="M 4.15625 18.75 
L 13.375 19.53125 
Q 14.40625 12.796875 18.140625 9.390625 
Q 21.875 6 27.15625 6 
Q 33.5 6 37.890625 10.78125 
Q 42.28125 15.578125 42.28125 23.484375 
Q 42.28125 31 38.0625 35.34375 
Q 33.84375 39.703125 27 39.703125 
Q 22.75 39.703125 19.328125 37.765625 
Q 15.921875 35.84375 13.96875 32.765625 
L 5.71875 33.84375 
L 12.640625 70.609375 
L 48.25 70.609375 
L 48.25 62.203125 
L 19.671875 62.203125 
L 15.828125 42.96875 
Q 22.265625 47.46875 29.34375 47.46875 
Q 38.71875 47.46875 45.15625 40.96875 
Q 51.609375 34.46875 51.609375 24.265625 
Q 51.609375 14.546875 45.953125 7.46875 
Q 39.0625 -1.21875 27.15625 -1.21875 
Q 17.390625 -1.21875 11.203125 4.25 
Q 5.03125 9.71875 4.15625 18.75 
" id="ArialMT-35"/>
      </defs>
      <g style="fill:#262626;" transform="translate(53.878125 295.62515625)scale(0.1 -0.1)">
       <use xlink:href="#ArialMT-35"/>
       <use x="55.615234375" xlink:href="#ArialMT-30"/>
      </g>
     </g>
    </g>
    <g id="ytick_3">
     <g id="line2d_31">
      <path clip-path="url(#pa6a220bb4e)" d="M 72 229.68 
L 518.4 229.68 
" style="fill:none;stroke:#ffffff;stroke-linecap:round;"/>
     </g>
     <g id="line2d_32">
      <g>
       <use style="fill:#262626;stroke:#262626;" x="72.0" xlink:href="#m72aade5592" y="229.68"/>
      </g>
     </g>
     <g id="line2d_33">
      <g>
       <use style="fill:#262626;stroke:#262626;" x="518.4" xlink:href="#m72aade5592" y="229.68"/>
      </g>
     </g>
     <g id="text_12">
      <!-- 100 -->
      <g style="fill:#262626;" transform="translate(48.3171875 232.26515625)scale(0.1 -0.1)">
       <use xlink:href="#ArialMT-31"/>
       <use x="55.615234375" xlink:href="#ArialMT-30"/>
       <use x="111.23046875" xlink:href="#ArialMT-30"/>
      </g>
     </g>
    </g>
    <g id="ytick_4">
     <g id="line2d_34">
      <path clip-path="url(#pa6a220bb4e)" d="M 72 166.32 
L 518.4 166.32 
" style="fill:none;stroke:#ffffff;stroke-linecap:round;"/>
     </g>
     <g id="line2d_35">
      <g>
       <use style="fill:#262626;stroke:#262626;" x="72.0" xlink:href="#m72aade5592" y="166.32"/>
      </g>
     </g>
     <g id="line2d_36">
      <g>
       <use style="fill:#262626;stroke:#262626;" x="518.4" xlink:href="#m72aade5592" y="166.32"/>
      </g>
     </g>
     <g id="text_13">
      <!-- 150 -->
      <g style="fill:#262626;" transform="translate(48.3171875 168.90515625)scale(0.1 -0.1)">
       <use xlink:href="#ArialMT-31"/>
       <use x="55.615234375" xlink:href="#ArialMT-35"/>
       <use x="111.23046875" xlink:href="#ArialMT-30"/>
      </g>
     </g>
    </g>
    <g id="ytick_5">
     <g id="line2d_37">
      <path clip-path="url(#pa6a220bb4e)" d="M 72 102.96 
L 518.4 102.96 
" style="fill:none;stroke:#ffffff;stroke-linecap:round;"/>
     </g>
     <g id="line2d_38">
      <g>
       <use style="fill:#262626;stroke:#262626;" x="72.0" xlink:href="#m72aade5592" y="102.96"/>
      </g>
     </g>
     <g id="line2d_39">
      <g>
       <use style="fill:#262626;stroke:#262626;" x="518.4" xlink:href="#m72aade5592" y="102.96"/>
      </g>
     </g>
     <g id="text_14">
      <!-- 200 -->
      <g style="fill:#262626;" transform="translate(48.3171875 105.54515625)scale(0.1 -0.1)">
       <use xlink:href="#ArialMT-32"/>
       <use x="55.615234375" xlink:href="#ArialMT-30"/>
       <use x="111.23046875" xlink:href="#ArialMT-30"/>
      </g>
     </g>
    </g>
    <g id="ytick_6">
     <g id="line2d_40">
      <path clip-path="url(#pa6a220bb4e)" d="M 72 39.6 
L 518.4 39.6 
" style="fill:none;stroke:#ffffff;stroke-linecap:round;"/>
     </g>
     <g id="line2d_41">
      <g>
       <use style="fill:#262626;stroke:#262626;" x="72.0" xlink:href="#m72aade5592" y="39.6"/>
      </g>
     </g>
     <g id="line2d_42">
      <g>
       <use style="fill:#262626;stroke:#262626;" x="518.4" xlink:href="#m72aade5592" y="39.6"/>
      </g>
     </g>
     <g id="text_15">
      <!-- 250 -->
      <g style="fill:#262626;" transform="translate(48.3171875 42.18515625)scale(0.1 -0.1)">
       <use xlink:href="#ArialMT-32"/>
       <use x="55.615234375" xlink:href="#ArialMT-35"/>
       <use x="111.23046875" xlink:href="#ArialMT-30"/>
      </g>
     </g>
    </g>
    <g id="text_16">
     <!-- y -->
     <defs>
      <path d="M 6.203125 -19.96875 
L 5.21875 -11.71875 
Q 8.109375 -12.5 10.25 -12.5 
Q 13.1875 -12.5 14.9375 -11.515625 
Q 16.703125 -10.546875 17.828125 -8.796875 
Q 18.65625 -7.46875 20.515625 -2.25 
Q 20.75 -1.515625 21.296875 -0.09375 
L 1.609375 51.859375 
L 11.078125 51.859375 
L 21.875 21.828125 
Q 23.96875 16.109375 25.640625 9.8125 
Q 27.15625 15.875 29.25 21.625 
L 40.328125 51.859375 
L 49.125 51.859375 
L 29.390625 -0.875 
Q 26.21875 -9.421875 24.46875 -12.640625 
Q 22.125 -17 19.09375 -19.015625 
Q 16.0625 -21.046875 11.859375 -21.046875 
Q 9.328125 -21.046875 6.203125 -19.96875 
" id="ArialMT-79"/>
     </defs>
     <g style="fill:#262626;" transform="translate(41.00203125 200.75)rotate(-90.0)scale(0.11 -0.11)">
      <use xlink:href="#ArialMT-79"/>
     </g>
    </g>
   </g>
   <g id="PathCollection_1">
    <defs>
     <path d="M 0 2.236068 
C 0.593012 2.236068 1.161816 2.000462 1.581139 1.581139 
C 2.000462 1.161816 2.236068 0.593012 2.236068 0 
C 2.236068 -0.593012 2.000462 -1.161816 1.581139 -1.581139 
C 1.161816 -2.000462 0.593012 -2.236068 0 -2.236068 
C -0.593012 -2.236068 -1.161816 -2.000462 -1.581139 -1.581139 
C -2.000462 -1.161816 -2.236068 -0.593012 -2.236068 0 
C -2.236068 0.593012 -2.000462 1.161816 -1.581139 1.581139 
C -1.161816 2.000462 -0.593012 2.236068 0 2.236068 
z
" id="mc3dbd03873" style="stroke:#000000;stroke-width:0.3;"/>
    </defs>
    <g clip-path="url(#pa6a220bb4e)">
     <use style="fill:#0000ff;stroke:#000000;stroke-width:0.3;" x="266.502857143" xlink:href="#mc3dbd03873" y="240.71616873"/>
     <use style="fill:#0000ff;stroke:#000000;stroke-width:0.3;" x="352.594285714" xlink:href="#mc3dbd03873" y="174.514458876"/>
     <use style="fill:#0000ff;stroke:#000000;stroke-width:0.3;" x="406.8" xlink:href="#mc3dbd03873" y="126.97172437"/>
     <use style="fill:#0000ff;stroke:#000000;stroke-width:0.3;" x="186.788571429" xlink:href="#mc3dbd03873" y="298.872704242"/>
     <use style="fill:#0000ff;stroke:#000000;stroke-width:0.3;" x="282.445714286" xlink:href="#mc3dbd03873" y="228.047249386"/>
     <use style="fill:#0000ff;stroke:#000000;stroke-width:0.3;" x="349.405714286" xlink:href="#mc3dbd03873" y="173.135854777"/>
     <use style="fill:#0000ff;stroke:#000000;stroke-width:0.3;" x="240.994285714" xlink:href="#mc3dbd03873" y="258.851457415"/>
     <use style="fill:#0000ff;stroke:#000000;stroke-width:0.3;" x="142.148571429" xlink:href="#mc3dbd03873" y="342.244410194"/>
     <use style="fill:#0000ff;stroke:#000000;stroke-width:0.3;" x="167.657142857" xlink:href="#mc3dbd03873" y="314.962417557"/>
     <use style="fill:#0000ff;stroke:#000000;stroke-width:0.3;" x="199.542857143" xlink:href="#mc3dbd03873" y="292.798740263"/>
     <use style="fill:#0000ff;stroke:#000000;stroke-width:0.3;" x="209.108571429" xlink:href="#mc3dbd03873" y="284.533306451"/>
     <use style="fill:#0000ff;stroke:#000000;stroke-width:0.3;" x="145.337142857" xlink:href="#mc3dbd03873" y="332.249751172"/>
     <use style="fill:#0000ff;stroke:#000000;stroke-width:0.3;" x="218.674285714" xlink:href="#mc3dbd03873" y="278.706906538"/>
     <use style="fill:#0000ff;stroke:#000000;stroke-width:0.3;" x="266.502857143" xlink:href="#mc3dbd03873" y="241.403948853"/>
     <use style="fill:#0000ff;stroke:#000000;stroke-width:0.3;" x="164.468571429" xlink:href="#mc3dbd03873" y="325.366882736"/>
     <use style="fill:#0000ff;stroke:#000000;stroke-width:0.3;" x="352.594285714" xlink:href="#mc3dbd03873" y="169.891612175"/>
     <use style="fill:#0000ff;stroke:#000000;stroke-width:0.3;" x="177.222857143" xlink:href="#mc3dbd03873" y="315.843727752"/>
     <use style="fill:#0000ff;stroke:#000000;stroke-width:0.3;" x="142.148571429" xlink:href="#mc3dbd03873" y="335.636152191"/>
     <use style="fill:#0000ff;stroke:#000000;stroke-width:0.3;" x="250.56" xlink:href="#mc3dbd03873" y="257.032375498"/>
     <use style="fill:#0000ff;stroke:#000000;stroke-width:0.3;" x="362.16" xlink:href="#mc3dbd03873" y="164.890277037"/>
     <use style="fill:#0000ff;stroke:#000000;stroke-width:0.3;" x="167.657142857" xlink:href="#mc3dbd03873" y="319.522471399"/>
     <use style="fill:#0000ff;stroke:#000000;stroke-width:0.3;" x="387.668571429" xlink:href="#mc3dbd03873" y="149.375051983"/>
     <use style="fill:#0000ff;stroke:#000000;stroke-width:0.3;" x="231.428571429" xlink:href="#mc3dbd03873" y="267.809892761"/>
     <use style="fill:#0000ff;stroke:#000000;stroke-width:0.3;" x="390.857142857" xlink:href="#mc3dbd03873" y="139.973850036"/>
     <use style="fill:#0000ff;stroke:#000000;stroke-width:0.3;" x="400.422857143" xlink:href="#mc3dbd03873" y="131.703654472"/>
     <use style="fill:#0000ff;stroke:#000000;stroke-width:0.3;" x="384.48" xlink:href="#mc3dbd03873" y="147.576107202"/>
     <use style="fill:#0000ff;stroke:#000000;stroke-width:0.3;" x="368.537142857" xlink:href="#mc3dbd03873" y="159.530367789"/>
     <use style="fill:#0000ff;stroke:#000000;stroke-width:0.3;" x="288.822857143" xlink:href="#mc3dbd03873" y="228.50568517"/>
     <use style="fill:#0000ff;stroke:#000000;stroke-width:0.3;" x="390.857142857" xlink:href="#mc3dbd03873" y="142.513648572"/>
     <use style="fill:#0000ff;stroke:#000000;stroke-width:0.3;" x="292.011428571" xlink:href="#mc3dbd03873" y="221.710951631"/>
     <use style="fill:#0000ff;stroke:#000000;stroke-width:0.3;" x="352.594285714" xlink:href="#mc3dbd03873" y="167.694379162"/>
     <use style="fill:#0000ff;stroke:#000000;stroke-width:0.3;" x="225.051428571" xlink:href="#mc3dbd03873" y="270.262468041"/>
     <use style="fill:#0000ff;stroke:#000000;stroke-width:0.3;" x="435.497142857" xlink:href="#mc3dbd03873" y="103.214210811"/>
     <use style="fill:#0000ff;stroke:#000000;stroke-width:0.3;" x="154.902857143" xlink:href="#mc3dbd03873" y="330.343056733"/>
     <use style="fill:#0000ff;stroke:#000000;stroke-width:0.3;" x="266.502857143" xlink:href="#mc3dbd03873" y="243.159484607"/>
     <use style="fill:#0000ff;stroke:#000000;stroke-width:0.3;" x="231.428571429" xlink:href="#mc3dbd03873" y="268.862300937"/>
     <use style="fill:#0000ff;stroke:#000000;stroke-width:0.3;" x="451.44" xlink:href="#mc3dbd03873" y="93.3530251466"/>
     <use style="fill:#0000ff;stroke:#000000;stroke-width:0.3;" x="196.354285714" xlink:href="#mc3dbd03873" y="300.190933591"/>
     <use style="fill:#0000ff;stroke:#000000;stroke-width:0.3;" x="186.788571429" xlink:href="#mc3dbd03873" y="300.417727356"/>
     <use style="fill:#0000ff;stroke:#000000;stroke-width:0.3;" x="209.108571429" xlink:href="#mc3dbd03873" y="290.033713485"/>
     <use style="fill:#0000ff;stroke:#000000;stroke-width:0.3;" x="260.125714286" xlink:href="#mc3dbd03873" y="244.755707808"/>
     <use style="fill:#0000ff;stroke:#000000;stroke-width:0.3;" x="225.051428571" xlink:href="#mc3dbd03873" y="270.533982806"/>
     <use style="fill:#0000ff;stroke:#000000;stroke-width:0.3;" x="209.108571429" xlink:href="#mc3dbd03873" y="286.901624902"/>
     <use style="fill:#0000ff;stroke:#000000;stroke-width:0.3;" x="202.731428571" xlink:href="#mc3dbd03873" y="288.375776826"/>
     <use style="fill:#0000ff;stroke:#000000;stroke-width:0.3;" x="154.902857143" xlink:href="#mc3dbd03873" y="328.456374638"/>
     <use style="fill:#0000ff;stroke:#000000;stroke-width:0.3;" x="387.668571429" xlink:href="#mc3dbd03873" y="142.71521446"/>
     <use style="fill:#0000ff;stroke:#000000;stroke-width:0.3;" x="441.874285714" xlink:href="#mc3dbd03873" y="103.160334376"/>
     <use style="fill:#0000ff;stroke:#000000;stroke-width:0.3;" x="135.771428571" xlink:href="#mc3dbd03873" y="343.370307947"/>
     <use style="fill:#0000ff;stroke:#000000;stroke-width:0.3;" x="161.28" xlink:href="#mc3dbd03873" y="323.540841843"/>
     <use style="fill:#0000ff;stroke:#000000;stroke-width:0.3;" x="138.96" xlink:href="#mc3dbd03873" y="343.392785172"/>
     <use style="fill:#0000ff;stroke:#000000;stroke-width:0.3;" x="330.274285714" xlink:href="#mc3dbd03873" y="186.417140035"/>
     <use style="fill:#0000ff;stroke:#000000;stroke-width:0.3;" x="400.422857143" xlink:href="#mc3dbd03873" y="127.599628792"/>
     <use style="fill:#0000ff;stroke:#000000;stroke-width:0.3;" x="336.651428571" xlink:href="#mc3dbd03873" y="187.301353005"/>
     <use style="fill:#0000ff;stroke:#000000;stroke-width:0.3;" x="451.44" xlink:href="#mc3dbd03873" y="91.284748934"/>
     <use style="fill:#0000ff;stroke:#000000;stroke-width:0.3;" x="451.44" xlink:href="#mc3dbd03873" y="90.135372672"/>
     <use style="fill:#0000ff;stroke:#000000;stroke-width:0.3;" x="247.371428571" xlink:href="#mc3dbd03873" y="257.467020208"/>
     <use style="fill:#0000ff;stroke:#000000;stroke-width:0.3;" x="250.56" xlink:href="#mc3dbd03873" y="252.839679813"/>
     <use style="fill:#0000ff;stroke:#000000;stroke-width:0.3;" x="371.725714286" xlink:href="#mc3dbd03873" y="161.190279762"/>
     <use style="fill:#0000ff;stroke:#000000;stroke-width:0.3;" x="256.937142857" xlink:href="#mc3dbd03873" y="248.347817882"/>
     <use style="fill:#0000ff;stroke:#000000;stroke-width:0.3;" x="397.234285714" xlink:href="#mc3dbd03873" y="138.296973025"/>
     <use style="fill:#0000ff;stroke:#000000;stroke-width:0.3;" x="205.92" xlink:href="#mc3dbd03873" y="286.880948321"/>
     <use style="fill:#0000ff;stroke:#000000;stroke-width:0.3;" x="247.371428571" xlink:href="#mc3dbd03873" y="258.600718157"/>
     <use style="fill:#0000ff;stroke:#000000;stroke-width:0.3;" x="253.748571429" xlink:href="#mc3dbd03873" y="250.925440187"/>
     <use style="fill:#0000ff;stroke:#000000;stroke-width:0.3;" x="295.2" xlink:href="#mc3dbd03873" y="219.090265739"/>
     <use style="fill:#0000ff;stroke:#000000;stroke-width:0.3;" x="295.2" xlink:href="#mc3dbd03873" y="212.226046532"/>
     <use style="fill:#0000ff;stroke:#000000;stroke-width:0.3;" x="387.668571429" xlink:href="#mc3dbd03873" y="140.452869619"/>
     <use style="fill:#0000ff;stroke:#000000;stroke-width:0.3;" x="355.782857143" xlink:href="#mc3dbd03873" y="164.89464998"/>
     <use style="fill:#0000ff;stroke:#000000;stroke-width:0.3;" x="288.822857143" xlink:href="#mc3dbd03873" y="226.975295274"/>
     <use style="fill:#0000ff;stroke:#000000;stroke-width:0.3;" x="272.88" xlink:href="#mc3dbd03873" y="236.931230323"/>
     <use style="fill:#0000ff;stroke:#000000;stroke-width:0.3;" x="451.44" xlink:href="#mc3dbd03873" y="95.6139117983"/>
     <use style="fill:#0000ff;stroke:#000000;stroke-width:0.3;" x="438.685714286" xlink:href="#mc3dbd03873" y="104.296027342"/>
     <use style="fill:#0000ff;stroke:#000000;stroke-width:0.3;" x="244.182857143" xlink:href="#mc3dbd03873" y="259.782497137"/>
     <use style="fill:#0000ff;stroke:#000000;stroke-width:0.3;" x="429.12" xlink:href="#mc3dbd03873" y="113.301616101"/>
     <use style="fill:#0000ff;stroke:#000000;stroke-width:0.3;" x="167.657142857" xlink:href="#mc3dbd03873" y="319.133766083"/>
     <use style="fill:#0000ff;stroke:#000000;stroke-width:0.3;" x="419.554285714" xlink:href="#mc3dbd03873" y="112.741062181"/>
     <use style="fill:#0000ff;stroke:#000000;stroke-width:0.3;" x="285.634285714" xlink:href="#mc3dbd03873" y="222.92607426"/>
     <use style="fill:#0000ff;stroke:#000000;stroke-width:0.3;" x="170.845714286" xlink:href="#mc3dbd03873" y="319.339378186"/>
     <use style="fill:#0000ff;stroke:#000000;stroke-width:0.3;" x="266.502857143" xlink:href="#mc3dbd03873" y="237.652047794"/>
     <use style="fill:#0000ff;stroke:#000000;stroke-width:0.3;" x="365.348571429" xlink:href="#mc3dbd03873" y="158.939764991"/>
     <use style="fill:#0000ff;stroke:#000000;stroke-width:0.3;" x="234.617142857" xlink:href="#mc3dbd03873" y="262.616327856"/>
     <use style="fill:#0000ff;stroke:#000000;stroke-width:0.3;" x="164.468571429" xlink:href="#mc3dbd03873" y="318.914258101"/>
     <use style="fill:#0000ff;stroke:#000000;stroke-width:0.3;" x="250.56" xlink:href="#mc3dbd03873" y="251.947206653"/>
     <use style="fill:#0000ff;stroke:#000000;stroke-width:0.3;" x="282.445714286" xlink:href="#mc3dbd03873" y="228.911103301"/>
     <use style="fill:#0000ff;stroke:#000000;stroke-width:0.3;" x="422.742857143" xlink:href="#mc3dbd03873" y="116.340472832"/>
     <use style="fill:#0000ff;stroke:#000000;stroke-width:0.3;" x="422.742857143" xlink:href="#mc3dbd03873" y="118.314885636"/>
     <use style="fill:#0000ff;stroke:#000000;stroke-width:0.3;" x="288.822857143" xlink:href="#mc3dbd03873" y="224.049999053"/>
     <use style="fill:#0000ff;stroke:#000000;stroke-width:0.3;" x="215.485714286" xlink:href="#mc3dbd03873" y="282.283896843"/>
     <use style="fill:#0000ff;stroke:#000000;stroke-width:0.3;" x="225.051428571" xlink:href="#mc3dbd03873" y="269.743391161"/>
     <use style="fill:#0000ff;stroke:#000000;stroke-width:0.3;" x="215.485714286" xlink:href="#mc3dbd03873" y="279.488230779"/>
     <use style="fill:#0000ff;stroke:#000000;stroke-width:0.3;" x="282.445714286" xlink:href="#mc3dbd03873" y="225.905296674"/>
     <use style="fill:#0000ff;stroke:#000000;stroke-width:0.3;" x="307.954285714" xlink:href="#mc3dbd03873" y="207.227554338"/>
     <use style="fill:#0000ff;stroke:#000000;stroke-width:0.3;" x="429.12" xlink:href="#mc3dbd03873" y="107.117694821"/>
     <use style="fill:#0000ff;stroke:#000000;stroke-width:0.3;" x="276.068571429" xlink:href="#mc3dbd03873" y="234.849843025"/>
     <use style="fill:#0000ff;stroke:#000000;stroke-width:0.3;" x="429.12" xlink:href="#mc3dbd03873" y="110.76247064"/>
     <use style="fill:#0000ff;stroke:#000000;stroke-width:0.3;" x="355.782857143" xlink:href="#mc3dbd03873" y="165.409795121"/>
     <use style="fill:#0000ff;stroke:#000000;stroke-width:0.3;" x="228.24" xlink:href="#mc3dbd03873" y="268.753981618"/>
     <use style="fill:#0000ff;stroke:#000000;stroke-width:0.3;" x="221.862857143" xlink:href="#mc3dbd03873" y="273.122332486"/>
     <use style="fill:#0000ff;stroke:#000000;stroke-width:0.3;" x="438.685714286" xlink:href="#mc3dbd03873" y="108.102676843"/>
     <use style="fill:#0000ff;stroke:#000000;stroke-width:0.3;" x="295.2" xlink:href="#mc3dbd03873" y="214.33666931"/>
     <use style="fill:#0000ff;stroke:#000000;stroke-width:0.3;" x="276.068571429" xlink:href="#mc3dbd03873" y="234.330646202"/>
    </g>
   </g>
   <g id="patch_3">
    <path d="M 72 356.4 
L 518.4 356.4 
" style="fill:none;"/>
   </g>
   <g id="patch_4">
    <path d="M 72 356.4 
L 72 39.6 
" style="fill:none;"/>
   </g>
   <g id="patch_5">
    <path d="M 72 39.6 
L 518.4 39.6 
" style="fill:none;"/>
   </g>
   <g id="patch_6">
    <path d="M 518.4 356.4 
L 518.4 39.6 
" style="fill:none;"/>
   </g>
  </g>
 </g>
 <defs>
  <clipPath id="pa6a220bb4e">
   <rect height="316.8" width="446.4" x="72.0" y="39.6"/>
  </clipPath>
 </defs>
</svg>
